PathFileType	4	(X/Y/Z)	/home/abdul/Desktop/myosuite/custom_workspace/IK/output/S13_12_1.trc
DataRate	CameraRate	NumFrames	NumMarkers	Units	OrigDataRate	OrigDataStartFrame	OrigNumFrames
200.0	200.0	28	3	mm	200.0	1126	1500
Frame#	Time	V_Shoulder			V_Elbow			V_Wrist		
		X1	Y1	Z1	X2	Y2	Z2	X3	Y3	Z3

1126	5.625	-84.69365420158623	615.1260137981374	336.2613148587407	-223.0505686753051	517.7460100641476	22.560706733542503	-213.61813777357747	252.0997116414324	75.27270466466113
1127	5.63	-84.76022098203981	615.1384216709013	336.2133540441032	-223.6133710925231	518.2490515357333	22.578435153210602	-215.23348410940207	252.42985762677193	74.96404045547504
1128	5.635	-84.82738502542857	615.150458170671	336.16506850766774	-224.1687181768967	518.7481814881303	22.594905486742288	-216.8327132395605	252.75670956642617	74.63899448039257
1129	5.64	-84.89512370392328	615.1621356834399	336.11647639020583	-224.71637548499515	519.2431432539857	22.610015677451216	-218.41486910970792	253.0802085717408	74.29801232131422
1130	5.645	-84.96341378203368	615.1734667295937	336.06759599323203	-225.25612115923684	519.733681132594	22.623667954915113	-219.9790200510422	253.40029552401316	73.94156499152987
1131	5.65	-85.03223143448865	615.1844639559504	336.0184457619392	-225.78774623146467	520.2195407431111	22.63576922133823	-221.52426018050048	253.71691097722072	73.57014796136399
1132	5.655	-85.10155226488715	615.1951401277812	335.9690442680049	-226.311054893767	520.7004693864791	22.646231420614715	-223.04971074926974	254.02999507606845	73.18428012481748
1133	5.66	-85.17135132510492	615.2055081208114	335.919410192288	-226.82586473571223	521.1762164153126	22.654971888418864	-224.55452143698255	254.339487490089	72.7845027101919
1134	5.665	-85.24160313543963	615.2155809131981	335.8695623074337	-227.33200694727887	521.6465336109451	22.66191368172953	-226.03787158906968	254.64532736442357	72.37137813783937
1135	5.67	-85.31228170547665	615.2253715774817	335.8195194604077	-227.82932648688097	522.1111755667675	22.666985886284913	-227.49897139484403	254.94745328780152	71.94548882832392
1136	5.675	-85.38336055565567	615.2348932725104	335.7693005549786	-228.31768221400938	522.5699000769466	22.67012390056059	-228.93706300400035	255.24580327812163	71.50743596441094
1137	5.68	-85.45481273951793	615.244159235331	335.7189245341672	-228.79694698613287	523.0224685295472	22.6712696949671	-230.3514215793278	255.5403147859211	71.05783821041688
1138	5.685	-85.5266108666113	615.2531827730473	335.6684103626829	-229.2670077196289	523.4686463030453	22.670372045073268	-231.74135628355307	255.8309247158997	70.59733039255393
1139	5.69	-85.59872712603078	615.2619772546385	335.6177770093682	-229.7277654146405	523.9082031651673	22.66738673777716	-233.10621119835537	256.117569466544	70.12656214399361
1140	5.695	-85.67113331056908	615.2705561027383	335.56704342966873	-230.17913514388482	524.3409136729538	22.662276749467903	-234.4453661737242	256.40018498777863	69.64619651844728
1141	5.7	-85.74380084145257	615.278932785368	335.51622854815133	-230.6210460055674	524.7665575729101	22.65501239534702	-235.75823760596808	256.6787068564463	69.15690857612381
1142	5.705	-85.81670079363494	615.2871208076226	335.4653512410889	-231.053441040684	525.1849202000735	22.645571449208045	-237.04427914282059	256.95307036930353	68.65938394597218
1143	5.71	-85.88980392162098	615.2951337033046	335.4144303191318	-231.47627711512106	525.5957928748026	22.633939233106332	-238.30298231423973	257.2232106530962	68.1543173681518
1144	5.715	-85.96308068579151	615.3029850265049	335.36348451008655	-231.88952476709125	525.9989732960695	22.620108676486886	-239.53387708764575	257.48906279116767	67.64241122069566
1145	5.72	-86.036501279199	615.3106883431266	335.31253244182153	-232.29316802056522	526.3942659300226	22.60408034447632	-240.73653234650197	257.75056196593766	67.1243740343409
1146	5.725	-86.1100356548033	615.3182572223485	335.2615926253199	-232.68720416548462	526.7814823925742	22.585862435184232	-241.910556291305	258.00764361648476	66.60091899949926
1147	5.73	-86.18365355311448	615.3257052280267	335.21068343789955	-233.07164350565773	527.1604418247626	22.56547074599965	-243.05559676221836	258.2602436103598	66.07276246932625
1148	5.735	-86.257324530211	615.3330459100313	335.15982310661957	-233.44650907535777	527.5309712596363	22.54292860900814	-244.17134148275707	258.5082984286646	65.5406224628227
1149	5.74	-86.33101798609779	615.3402927955179	335.109029691894	-233.81183632575272	527.892905979415	22.518266795794695	-245.25751822410575	258.7517453633344	65.00521717186717
1150	5.745	-86.40470319337108	615.3474593801301	335.05832107133125	-234.16767278240468	528.2460898616905	22.491523392035607	-246.31389488983694	258.99052272548363	64.46726347603222
1151	5.75	-86.47834932615298	615.3545591191324	335.0077149238191	-234.51407767517662	528.590375713448	22.462743642418488	-247.34027952097966	259.2245700635931	63.927475468981804
1152	5.755	-86.55192548926088	615.3616054184755	334.9572287138747	-234.85112154198293	528.9256255917081	22.431979766562954	-248.33652022157725	259.45382839025194	63.38656300018387
1153	5.76	-86.62540074757386	615.3686116257887	334.90687967627815	-235.1788858079073	529.2517111096186	22.399290746744473	-249.30250500506497	259.67824041610373	62.84523023559824
